<svg width="402" height="402" viewBox="0 0 402 402" fill="none" xmlns="http://www.w3.org/2000/svg">
<path d="M86.14 363L77.14 306.34H64.5C47.3983 306.319 31.0033 299.515 18.9115 287.421C6.81967 275.328 0.0185239 258.932 0 241.83V64.51C0.0185239 47.4083 6.81967 31.0122 18.9115 18.9185C31.0033 6.82486 47.3983 0.0211751 64.5 0H337.5C354.602 0.0211751 370.997 6.82486 383.089 18.9185C395.18 31.0122 401.981 47.4083 402 64.51V241.83C401.981 258.932 395.18 275.328 383.089 287.421C370.997 299.515 354.602 306.319 337.5 306.34H182.64L112.43 372.88C110.42 375.177 107.758 376.807 104.797 377.551C101.837 378.295 98.7204 378.119 95.8632 377.045C93.006 375.971 90.5443 374.052 88.807 371.542C87.0696 369.032 86.1392 366.052 86.14 363ZM64.51 30C55.3693 30.0238 46.6105 33.6689 40.1517 40.1371C33.6929 46.6052 30.0606 55.3693 30.05 64.51V241.83C30.0606 250.978 33.6985 259.748 40.1659 266.217C46.6333 272.686 55.4024 276.327 64.55 276.34H92.14C96.1182 276.34 99.9336 277.92 102.747 280.733C105.56 283.546 107.14 287.362 107.14 291.34L112.14 333.09L164.55 281.46C165.96 279.849 167.7 278.558 169.65 277.675C171.601 276.792 173.719 276.337 175.86 276.34H337.5C346.648 276.327 355.417 272.686 361.884 266.217C368.352 259.748 371.989 250.978 372 241.83V64.51C371.989 55.3624 368.352 46.5923 361.884 40.123C355.417 33.6537 346.648 30.0132 337.5 30H64.51Z" fill="black"/>
<path d="M116.759 132.959C117.13 132.959 117.494 132.919 117.865 132.902C116.413 123.369 118.081 113.617 122.616 105.123C127.15 96.6292 134.306 89.8536 143 85.8208C140.199 81.2077 136.25 77.4133 131.544 74.8143C126.838 72.2154 121.539 70.9024 116.173 71.0057C110.808 71.109 105.563 72.625 100.959 75.4032C96.3545 78.1814 92.5516 82.1251 89.9277 86.8427C87.3039 91.5602 85.9503 96.8874 86.0014 102.295C86.0525 107.703 87.5065 113.003 90.2191 117.67C92.9316 122.336 96.8083 126.206 101.464 128.895C106.12 131.585 111.393 133 116.759 133V132.959Z" fill="#241F20"/>
<path d="M162.5 161C181.554 161 197 145.554 197 126.5C197 107.446 181.554 92 162.5 92C143.446 92 128 107.446 128 126.5C128 145.554 143.446 161 162.5 161Z" fill="#241F20"/>
<path d="M191.792 160C183.561 167.369 172.932 171.449 161.915 171.468C150.897 171.488 140.254 167.446 131.997 160.106C111.211 171.525 97 194.42 97 220.831C97.0049 224.91 97.3548 228.981 98.0458 233H225.938C226.638 228.982 226.994 224.91 227 220.831C227 194.339 212.7 171.378 191.792 160Z" fill="#241F20"/>
<path d="M126 153.064C123.779 149.943 121.969 146.548 120.615 142.963C119.438 143.068 118.245 143.133 117.044 143.133C107.203 143.138 97.7002 139.533 90.3274 133C71.7132 143.182 59 163.609 59 187.14C59.0034 190.78 59.3163 194.413 59.9351 198H91.6173C93.8571 188.501 98.0792 179.585 104.006 171.84C109.932 164.094 117.428 157.695 126 153.064Z" fill="#241F20"/>
<path d="M326.924 101.713H297.321V72.0762C297.256 70.1777 296.457 68.3785 295.091 67.0582C293.725 65.738 291.9 65 290 65C288.1 65 286.275 65.738 284.909 67.0582C283.543 68.3785 282.744 70.1777 282.679 72.0762V101.679H253.076C251.178 101.744 249.379 102.543 248.058 103.909C246.738 105.275 246 107.1 246 109C246 110.9 246.738 112.725 248.058 114.091C249.379 115.457 251.178 116.256 253.076 116.321H282.679V145.924C282.744 147.822 283.543 149.622 284.909 150.942C286.275 152.262 288.1 153 290 153C291.9 153 293.725 152.262 295.091 150.942C296.457 149.622 297.256 147.822 297.321 145.924V116.354H326.924C328.822 116.29 330.622 115.49 331.942 114.125C333.262 112.759 334 110.933 334 109.034C334 107.134 333.262 105.309 331.942 103.943C330.622 102.577 328.822 101.778 326.924 101.713V101.713Z" fill="black"/>
</svg>
